<svg xmlns="http://www.w3.org/2000/svg" xmlns:xlink="http://www.w3.org/1999/xlink" version="1.1"  x="0px" y="0px" width="32" height="32" viewBox="0 0 24 24" style="enable-background:new 0 0 24 24;" xml:space="preserve" viewbox="0 0 32 32">

<rect class="st2" width="24" height="24" style="fill:none;;"></rect>
<path id="58744607_shock_x5F_color_grid" class="stshockcolor" d="M20,11c0,5-3.58,11-8,11s-8-6-8-11c0-6,3.58-9,8-9S20,5,20,11z" style="fill:#90A4AE;;" data-st="fill:#90A4AE;;"></path>
<path class="st1" d="M12,2v20c-4.42,0-8-6-8-11C4,5,7.58,2,12,2z" style="opacity:0.2;fill:#FFFFFF;;"></path>
<path class="st3" d="M5,12c0,0,0-2,2-2s3.5,3,3.5,5c0,0,0,1-1,1S5,16,5,12z M19,12c0,0,0-2-2-2s-3.5,3-3.5,5c0,0,0,1,1,1  S19,16,19,12z" style="fill:#3949AB;;"></path>
</svg>