<svg xmlns="http://www.w3.org/2000/svg" xmlns:xlink="http://www.w3.org/1999/xlink" version="1.1"  x="0px" y="0px" width="32" height="32" viewBox="0 0 24 24" style="enable-background:new 0 0 24 24;" xml:space="preserve" viewbox="0 0 32 32">

<rect class="st0" width="24" height="24" style="fill:none;;"></rect>
<path id="58439696_shock_x5F_color_grid" class="stshockcolor" d="M17,18v2h2v-2H17z M17,2v2h2V2H17z M5,18v2h2v-2H5z M5,2v2h2V2H5z M19,10V6h-2V4h-2v2H9V4  H7v2H5v4H1v4h2v-2h2v4h2v2h10v-2h2v-4h2v2h2v-4H19z M10,13H7v-3h3V13z M17,13h-3v-3h3V13z" style="fill:#66BB6A;;" data-st="fill:#66BB6A;;"></path>
</svg>