<svg xmlns="http://www.w3.org/2000/svg" xmlns:xlink="http://www.w3.org/1999/xlink" version="1.1"  x="0px" y="0px" width="32" height="32" viewBox="0 0 24 24" style="enable-background:new 0 0 24 24;" xml:space="preserve" viewbox="0 0 32 32">

<rect class="st1" width="24" height="24" style="fill:none;;"></rect>
<circle id="58344526_shock_x5F_color_grid" class="stshockcolor" cx="12" cy="12" r="10" style="fill:#6D4C41;;" data-st="fill:#6D4C41;;"></circle>
<path class="st0" d="M12,2h-0.03C6.46,2.02,2,6.49,2,12s4.46,9.98,9.97,10H12c5.52,0,10-4.48,10-10C22,6.48,17.52,2,12,2z M6,10  c-0.55,0-1-0.45-1-1s0.45-1,1-1s1,0.45,1,1S6.55,10,6,10z M9,19c-0.55,0-1-0.45-1-1s0.45-1,1-1s1,0.45,1,1S9.55,19,9,19z M11,14  c-1.1,0-2-0.9-2-2c0-1.1,0.9-2,2-2s2,0.9,2,2C13,13.1,12.1,14,11,14z M11.5,7C10.67,7,10,6.33,10,5.5S10.67,4,11.5,4S13,4.67,13,5.5  S12.33,7,11.5,7z M16.5,17c-0.83,0-1.5-0.67-1.5-1.5s0.67-1.5,1.5-1.5s1.5,0.67,1.5,1.5S17.33,17,16.5,17z M17,9c-0.55,0-1-0.45-1-1  s0.45-1,1-1s1,0.45,1,1S17.55,9,17,9z" style="opacity:0.2;fill:#FFFFFF;;"></path>
</svg>