<svg xmlns="http://www.w3.org/2000/svg" xmlns:xlink="http://www.w3.org/1999/xlink" version="1.1"  x="0px" y="0px" width="32" height="32" viewBox="0 0 24 24" style="enable-background:new 0 0 24 24;" xml:space="preserve" viewbox="0 0 32 32">

<rect class="st3" width="24" height="24" style="fill:none;;"></rect>
<circle id="58244464_shock_x5F_color_grid" class="stshockcolor" cx="12" cy="9" r="5" style="fill:#1E88E5;;" data-st="fill:#1E88E5;;"></circle>
<path class="st2" d="M21,20v2H3v-2c0-1.66,1.84-2.76,4-3.42V15c0,0,0-2,2-2h6c2,0,2,2,2,2v1.58C19.16,17.24,21,18.34,21,20z M7,8h10  c0.553,0,1-0.448,1-1s-0.447-1-1-1c0-4-5-4-5-4S7,2,7,6C6.448,6,6,6.448,6,7S6.448,8,7,8z" style="fill:#FFA726;;"></path>
<path class="st1" d="M10,6V3c0,0,0-2,2-2s2,2,2,2v3H10z M13,13h-2v9h2V13z" style="fill:#FB8C00;;"></path>
</svg>