<svg xmlns="http://www.w3.org/2000/svg" xmlns:xlink="http://www.w3.org/1999/xlink" version="1.1"  x="0px" y="0px" width="32" height="32" viewBox="0 0 24 24" style="enable-background:new 0 0 24 24;" xml:space="preserve" viewbox="0 0 32 32">

<rect class="st2" width="24" height="24" style="fill:none;;"></rect>
<path id="58344595_shock_x5F_color_grid" class="stshockcolor" d="M19,11v8l-4,3v-5c0,0,2-1,2-3s-1-2-1-2h-2c-1,0-1,1-1,1v3l-1,1l-1-1v-3c0,0,0-1-1-1H8  c0,0-1,0-1,2s2,3,2,3v5l-4-3v-8c0,0,0-5,7-5S19,11,19,11z" style="fill:#FFCA28;;" data-st="fill:#FFCA28;;"></path>
<path class="st0" d="M12,6v11l-1-1v-3c0,0,0-1-1-1H8c0,0-1,0-1,2s2,3,2,3v5l-4-3v-8C5,11,5,6,12,6z" style="opacity:0.2;fill:#FFFFFF;;"></path>
<path class="st3" d="M9,3c0,0,0-2,2-2h2c0,0,2,0,2,2s-2,7-3,7S9,5,9,3z" style="fill:#D32F2F;;"></path>
</svg>