<svg version="1.1"  xmlns="http://www.w3.org/2000/svg" xmlns:xlink="http://www.w3.org/1999/xlink" x="0px" y="0px" width="32" height="32" viewBox="0 0 24 24" style="enable-background:new 0 0 24 24;" xml:space="preserve" viewbox="0 0 32 32">
<path id="shock_x5F_color" class="stshockcolor" style="fill:#039BE5;" d="M15,9c0,1.654-1.346,3-3,3s-3-1.346-3-3s1.346-3,3-3S15,7.346,15,9z M22,12
	c0,3.909-2.261,7.293-5.539,8.937c-0.04,0.021-0.078,0.043-0.121,0.058C15.026,21.632,13.557,22,12,22
	c-1.557,0-3.026-0.368-4.341-1.005c-0.042-0.016-0.079-0.036-0.119-0.057c-2.758-1.382-4.79-3.996-5.367-7.121
	C1.483,13.5,1,12.807,1,12c0-0.807,0.483-1.501,1.173-1.816C3.031,5.535,7.107,2,12,2C17.514,2,22,6.486,22,12z M20,12
	c0-4.411-3.589-8-8-8c-3.857,0-7.084,2.744-7.835,6.381C4.392,10.545,4.58,10.757,4.722,11H8l1,1l-1,1H4.722
	c-0.142,0.243-0.329,0.455-0.557,0.619C4.547,15.472,5.576,17.09,7,18.235v-2.596C7,13.764,10.125,13,12,13s5,0.764,5,2.639v2.596
	C18.826,16.768,20,14.52,20,12z" data-st="fill:#039BE5;"></path>
<path style="opacity:0.4;" d="M12,20c-1.891,0-3.629-0.663-5-1.765l0,0v-2.596C7,13.764,10.125,13,12,13s5,0.764,5,2.639v2.596l0,0
	C15.629,19.337,13.891,20,12,20z M3,14c-0.288,0-0.56-0.064-0.808-0.174c0.104,0.561,0.238,1.112,0.433,1.636
	C2.75,15.476,2.872,15.5,3,15.5c0.589,0,1.137-0.16,1.625-0.419c-0.198-0.47-0.333-0.97-0.437-1.481C3.854,13.848,3.446,14,3,14z"></path>
</svg>