<svg xmlns="http://www.w3.org/2000/svg" xmlns:xlink="http://www.w3.org/1999/xlink" version="1.1"  x="0px" y="0px" width="32" height="32" viewBox="0 0 24 24" style="enable-background:new 0 0 24 24;" xml:space="preserve" viewbox="0 0 32 32">

<path class="st3" d="M0,0h24v24H0V0z" style="fill:none;;"></path>
<path id="582145232_shock_x5F_color_grid" class="stshockcolor" d="M21,13c0,4.97-4.03,9-9,9c-4.97,0-9-4.03-9-9c0-4.97,4.03-9,9-9  c2.12,0,4.07,0.74,5.61,1.97l1.68-1.68l1.42,1.42l-1.68,1.68C20.26,8.93,21,10.88,21,13z M9,3h6V1H9V3z" style="fill:#7E57C2;;" data-st="fill:#7E57C2;;"></path>
<path class="st0" d="M12,6c-3.87,0-7,3.13-7,7s3.13,7,7,7s7-3.13,7-7S15.87,6,12,6z M13,18h-2v-2h2V18z M13,14h-2V8h2V14z" style="opacity:0.6;fill:#FFFFFF;;"></path>
<path class="st2" d="M20.71,5.71l-1.68,1.68c-0.41-0.53-0.891-1.01-1.42-1.42l1.68-1.68L20.71,5.71z" style="opacity:0.2;fill:#FFFFFF;;"></path>
</svg>